<?xml version="1.0" standalone="no"?>
<!DOCTYPE svg PUBLIC "-//W3C//DTD SVG 20010904//EN"
 "http://www.w3.org/TR/2001/REC-SVG-20010904/DTD/svg10.dtd">
<svg version="1.0" xmlns="http://www.w3.org/2000/svg"
 width="1024.000000pt" height="1024.000000pt" viewBox="0 0 1024.000000 1024.000000"
 preserveAspectRatio="xMidYMid meet">
<metadata>
Created by potrace 1.14, written by Peter Selinger 2001-2017
</metadata>
<g transform="translate(0.000000,1024.000000) scale(0.100000,-0.100000)"
fill="#000000" stroke="none">
<path d="M0 5120 l0 -5120 5120 0 5120 0 0 5120 0 5120 -5120 0 -5120 0 0
-5120z m5455 4120 c228 -15 329 -29 455 -61 559 -146 994 -389 1370 -768 435
-437 731 -1055 789 -1645 14 -140 14 -413 0 -569 -26 -303 -120 -619 -263
-892 -69 -131 -137 -236 -311 -480 -230 -321 -288 -428 -304 -560 -22 -180 -9
-579 24 -740 8 -38 19 -99 25 -135 16 -101 42 -214 52 -225 4 -5 8 -19 8 -31
0 -12 16 -66 36 -120 20 -55 64 -182 99 -284 35 -102 98 -279 140 -395 42
-115 118 -334 169 -485 110 -324 186 -528 249 -673 19 -44 20 -48 5 -63 -19
-20 -285 -84 -343 -84 -22 0 -123 -2 -225 -5 -102 -2 -734 -7 -1405 -10 -746
-3 -1273 -9 -1358 -16 -75 -6 -144 -9 -151 -6 -22 9 -84 219 -206 697 -61 239
-127 487 -146 551 -30 104 -142 390 -158 407 -4 3 -195 10 -424 13 -233 4
-443 12 -477 19 -90 16 -286 117 -368 189 -130 113 -216 253 -258 421 -19 76
-21 103 -16 270 3 121 11 204 21 239 8 30 12 61 7 69 -4 7 -39 30 -77 51 -86
47 -125 99 -153 201 -18 71 -19 82 -6 220 8 80 20 184 27 233 9 65 9 90 0 99
-6 6 -57 15 -114 19 -200 17 -281 46 -380 137 -84 78 -121 157 -126 274 -3 67
0 103 13 145 39 125 420 643 665 907 l57 61 6 285 c5 207 12 322 26 421 23
156 68 356 82 365 5 3 9 14 9 24 0 51 149 372 250 540 287 479 683 851 1159
1088 500 250 952 339 1526 302z"/>
<path d="M5059 7800 c-89 -9 -221 -36 -264 -55 -16 -7 -46 -18 -65 -24 -110
-36 -333 -192 -441 -308 -203 -219 -292 -387 -345 -644 -24 -116 -28 -158 -28
-314 0 -262 31 -409 134 -620 64 -132 141 -236 275 -370 275 -277 614 -420
947 -401 246 15 371 46 573 146 275 136 554 464 655 771 11 35 25 73 30 84 32
69 49 390 32 605 -12 153 -41 249 -123 415 -70 142 -117 208 -240 333 -176
180 -421 314 -664 362 -104 21 -363 32 -476 20z"/>
</g>
</svg>
