<?xml version="1.0" standalone="no"?>
<!DOCTYPE svg PUBLIC "-//W3C//DTD SVG 20010904//EN"
 "http://www.w3.org/TR/2001/REC-SVG-20010904/DTD/svg10.dtd">
<svg version="1.0" xmlns="http://www.w3.org/2000/svg"
 width="1024.000000pt" height="1024.000000pt" viewBox="0 0 1024.000000 1024.000000"
 preserveAspectRatio="xMidYMid meet">
<metadata>
Created by potrace 1.14, written by Peter Selinger 2001-2017
</metadata>
<g transform="translate(0.000000,1024.000000) scale(0.100000,-0.100000)"
fill="#000000" stroke="none">
<path d="M2445 10113 c-235 -20 -504 -79 -695 -151 -777 -294 -1348 -931
-1550 -1727 -81 -318 -75 -75 -75 -3120 0 -2168 3 -2728 13 -2800 74 -514 259
-932 580 -1315 339 -405 843 -708 1368 -824 245 -54 40 -50 2954 -54 1934 -2
2720 0 2810 8 432 39 840 188 1199 438 538 374 908 946 1030 1592 42 224 42
241 39 3040 -4 2914 0 2709 -54 2954 -61 276 -200 606 -350 831 -364 546 -915
932 -1530 1069 -290 65 -41 60 -3009 62 -1479 0 -2708 -1 -2730 -3z m2985
-913 c231 -16 326 -29 470 -65 777 -196 1423 -649 1819 -1277 357 -568 500
-1110 462 -1762 -13 -213 -30 -327 -76 -501 -96 -366 -232 -632 -550 -1070
-118 -163 -176 -253 -248 -385 -37 -68 -48 -102 -58 -170 -25 -175 -9 -666 26
-810 7 -30 21 -99 29 -153 9 -55 24 -124 32 -155 9 -32 21 -79 28 -107 8 -27
32 -102 55 -165 23 -63 69 -191 101 -285 32 -93 95 -271 139 -395 45 -124 126
-355 180 -515 96 -282 167 -478 218 -600 62 -148 59 -134 37 -156 -14 -13 -68
-30 -174 -54 l-154 -35 -421 -6 c-231 -3 -958 -10 -1615 -15 -657 -6 -1222
-11 -1255 -12 l-60 -2 -27 80 c-45 136 -83 276 -177 645 -110 431 -145 561
-178 665 -29 90 -130 335 -144 350 -5 5 -188 12 -442 16 -255 4 -459 12 -497
19 -80 14 -215 73 -310 135 -222 143 -351 357 -381 630 -11 105 3 329 26 417
8 32 12 65 8 74 -3 9 -31 28 -62 41 -31 13 -73 41 -95 61 -41 39 -86 122 -86
159 0 12 -5 33 -11 47 -9 19 -8 66 5 203 10 98 22 211 28 251 9 53 9 75 1 83
-7 7 -56 15 -110 20 -153 14 -223 28 -291 61 -88 41 -183 136 -223 222 -28 61
-31 75 -32 174 0 149 13 178 237 492 153 216 441 569 525 644 20 19 21 27 21
291 0 218 4 303 21 426 22 165 73 407 89 423 6 6 10 18 10 28 0 10 18 62 39
115 215 538 566 1002 1007 1334 318 239 737 432 1144 528 274 64 577 84 920
61z m3058 -4379 c9 -6 29 -12 44 -15 38 -8 125 -81 158 -132 24 -38 50 -116
74 -227 6 -26 14 -32 81 -57 128 -48 226 -108 255 -155 12 -19 24 -58 27 -88
5 -48 3 -56 -29 -97 -56 -74 -73 -74 -175 -3 -49 33 -135 86 -193 118 -140 76
-145 80 -129 136 6 24 12 78 13 120 1 68 -2 80 -29 125 -21 33 -48 60 -85 82
-50 29 -61 32 -141 32 -73 0 -91 -3 -119 -22 -46 -32 -85 -84 -109 -144 -17
-44 -18 -54 -6 -80 27 -59 65 -163 65 -177 0 -21 -31 -44 -70 -52 -45 -10
-135 -55 -284 -144 -66 -39 -124 -71 -129 -71 -6 0 -30 20 -54 45 -50 52 -56
91 -23 154 36 72 178 177 282 210 20 7 48 23 62 36 22 20 26 33 26 80 0 67 40
163 93 222 33 36 117 85 177 104 36 11 197 11 218 0z m-70 -367 c28 -20 30
-77 2 -121 -21 -34 -46 -41 -81 -23 -45 24 -67 129 -31 149 26 16 85 13 110
-5z m165 -518 c231 -82 417 -273 489 -501 30 -94 32 -290 4 -380 -62 -205
-196 -374 -368 -465 -103 -55 -163 -71 -293 -77 -104 -5 -130 -3 -200 17 -228
63 -362 174 -468 386 -40 79 -67 194 -67 283 0 96 20 258 39 320 44 141 182
285 361 376 104 53 154 64 300 64 118 1 144 -3 203 -23z"/>
<path d="M4944 7676 c-109 -18 -223 -46 -230 -57 -3 -5 -14 -9 -25 -9 -34 0
-232 -109 -325 -180 -171 -130 -352 -345 -434 -515 -60 -124 -73 -163 -107
-323 -24 -113 -27 -149 -27 -327 -1 -215 10 -296 60 -465 42 -139 141 -320
237 -435 275 -327 556 -500 913 -561 170 -28 483 5 657 71 208 79 340 165 502
330 177 179 283 354 375 615 41 118 45 159 45 465 0 300 0 300 -29 395 -35
120 -120 298 -193 408 -31 47 -104 133 -162 192 -191 192 -438 327 -696 381
-121 25 -446 34 -561 15z"/>
<path d="M8351 3788 c-4 -13 -11 -93 -14 -178 -10 -232 -40 -407 -70 -398 -6
2 -34 48 -62 101 -62 120 -70 123 -210 88 -22 -5 -71 -17 -110 -26 -38 -8 -81
-23 -95 -33 -36 -26 -61 -82 -54 -120 6 -29 9 -31 71 -38 67 -7 177 0 252 17
30 7 47 6 57 -2 7 -6 29 -53 49 -104 43 -111 84 -177 121 -194 23 -10 30 -9
50 10 13 12 30 47 39 78 9 31 20 70 25 86 4 17 11 52 15 79 18 129 48 127 122
-9 21 -38 43 -70 50 -72 7 -3 34 16 60 40 l48 45 120 4 c133 5 184 21 204 64
15 34 14 70 -4 88 -20 19 -106 31 -230 31 -86 0 -105 -3 -138 -22 -21 -13 -40
-23 -42 -23 -8 0 -61 112 -88 185 -14 39 -35 114 -46 168 -23 108 -34 131 -68
146 -34 16 -42 14 -52 -11z"/>
</g>
</svg>
